<?xml version="1.0" encoding="UTF-8"?>
<!DOCTYPE svg PUBLIC "-//W3C//DTD SVG 1.1//EN" "http://www.w3.org/Graphics/SVG/1.1/DTD/svg11.dtd">
<!-- Creator: CorelDRAW X7 -->
<svg xmlns="http://www.w3.org/2000/svg" xml:space="preserve" width="40mm" height="30mm" version="1.1" style="shape-rendering:geometricPrecision; text-rendering:geometricPrecision; image-rendering:optimizeQuality; fill-rule:evenodd; clip-rule:evenodd"
viewBox="0 0 4000 3000"
 xmlns:xlink="http://www.w3.org/1999/xlink">
 <defs>
  <style type="text/css">
   <![CDATA[
    .fil0 {fill:#fff}
   ]]>
  </style>
 </defs>
 <g id="Camada_x0020_1">
  <metadata id="CorelCorpID_0Corel-Layer"/>
  <g id="_192908540736">
   <path class="fil0" d="M1989 155c217,0 413,86 557,226 -48,37 -172,167 -276,253 -70,57 -133,79 -207,108 -81,31 -196,11 -254,14 -216,13 -402,198 -402,420 0,566 832,477 822,0 -3,-175 9,-280 64,-368 14,-23 45,-94 107,-173 40,-51 114,-127 176,-179 7,-6 16,-12 25,-16 117,139 188,319 188,516 0,442 -358,800 -800,800 -442,0 -801,-358 -801,-800 0,-442 359,-801 801,-801z"/>
   <path class="fil0" d="M303 1930l229 0 0 77c157,-162 590,-47 590,240l0 421 -252 0 0 -425c0,-104 -216,-171 -314,-5l0 430 -253 0 0 -738z"/>
   <path class="fil0" d="M1700 1894c163,0 306,75 387,187l-109 128c-61,-116 -398,-184 -426,1l327 67c12,3 12,52 0,54l-327 67c28,185 365,118 426,1l103 121c-82,108 -222,179 -381,179 -252,0 -457,-180 -457,-402 0,-223 205,-403 457,-403z"/>
   <path class="fil0" d="M2157 1942l177 9c652,-242 801,725 75,616l0 278 -252 0 0 -903zm267 153c317,-66 281,381 -11,314 0,0 3,0 0,0l0 -311c3,0 0,0 11,-3z"/>
   <path class="fil0" d="M2961 1942l177 9c653,-242 802,725 76,616l0 278 -253 0 0 -903zm268 153c317,-66 281,381 -11,314 0,0 3,0 0,0l0 -311c3,0 0,0 11,-3z"/>
  </g>
 </g>
</svg>
